<svg xmlns="http://www.w3.org/2000/svg" width="100" height="100" viewBox="0 0 100 100">
    <title>  ic_youtube</title>
    <desc>  Created with Sketch.</desc>
    <g fill="none">
        <path d="M50 100C22.4 100 0 77.6 0 50 0 22.4 22.4 0 50 0 77.6 0 100 22.4 100 50 100 77.6 77.6 100 50 100ZM75.9 36.9C75.3 34.6 73.4 32.8 71.1 32.1 66.9 31 50 31 50 31 50 31 33.1 31 28.9 32.1 26.6 32.8 24.7 34.6 24.1 36.9 23 41.2 23 50 23 50 23 50 23 58.9 24.1 63.1 24.8 65.5 26.6 67.3 28.9 67.9 33.1 69 50 69 50 69 50 69 66.9 69 71.1 67.9 73.4 67.3 75.3 65.5 75.9 63.1 77 58.9 77 50 77 50 77 50 77 41.2 75.9 36.9L75.9 36.9ZM44.5 58.1L44.5 42 58.6 50 44.5 58.1 44.5 58.1Z" fill="#464646"/>
    </g>
</svg>
