<svg xmlns="http://www.w3.org/2000/svg" width="100" height="100" viewBox="0 0 100 100">
    <style type="text/css">
        .st0{fill:#464646;}
    </style>
    <desc>  Created with Sketch.</desc>
    <circle class="st0" cx="50" cy="50" r="9.2"/>
    <path class="st0" d="M71.4 33.8c-0.5-1.3-1.1-2.2-2.1-3.2 -1-1-1.9-1.6-3.2-2.1 -1-0.4-2.4-0.8-5.1-0.9 -2.9-0.1-3.8-0.2-11.1-0.2s-8.2 0-11.1 0.2c-2.7 0.1-4.1 0.6-5.1 0.9 -1.3 0.5-2.2 1.1-3.2 2.1 -1 1-1.6 1.9-2.1 3.2 -0.4 1-0.8 2.4-0.9 5.1 -0.1 2.9-0.2 3.8-0.2 11.1s0 8.2 0.2 11.1c0.1 2.7 0.6 4.1 0.9 5.1 0.5 1.3 1.1 2.2 2.1 3.2 1 1 1.9 1.6 3.2 2.1 1 0.4 2.4 0.8 5.1 0.9 2.9 0.1 3.8 0.2 11.1 0.2s8.2 0 11.1-0.2c2.7-0.1 4.1-0.6 5.1-0.9 1.3-0.5 2.2-1.1 3.2-2.1 1-1 1.6-1.9 2.1-3.2 0.4-1 0.8-2.4 0.9-5.1 0.1-2.9 0.2-3.8 0.2-11.1s0-8.2-0.2-11.1C72.3 36.2 71.8 34.8 71.4 33.8zM50 64.1c-7.8 0-14.1-6.3-14.1-14.1S42.2 35.9 50 35.9 64.1 42.2 64.1 50 57.8 64.1 50 64.1zM64.7 38.6c-1.8 0-3.3-1.5-3.3-3.3s1.5-3.3 3.3-3.3 3.3 1.5 3.3 3.3S66.5 38.6 64.7 38.6z"/>
    <path class="st0" d="M50 0C22.4 0 0 22.4 0 50s22.4 50 50 50 50-22.4 50-50S77.6 0 50 0zM77.3 61.3c-0.1 2.9-0.6 4.9-1.3 6.7 -0.7 1.8-1.6 3.3-3.2 4.9 -1.5 1.5-3.1 2.5-4.9 3.2 -1.7 0.7-3.7 1.1-6.7 1.3 -2.9 0.1-3.9 0.2-11.3 0.2s-8.4 0-11.3-0.2c-2.9-0.1-4.9-0.6-6.7-1.3 -1.8-0.7-3.3-1.6-4.9-3.2 -1.5-1.5-2.5-3.1-3.2-4.9 -0.7-1.7-1.1-3.7-1.3-6.7 -0.1-2.9-0.2-3.9-0.2-11.3s0-8.4 0.2-11.3c0.1-2.9 0.6-4.9 1.3-6.7 0.7-1.8 1.6-3.3 3.2-4.9 1.5-1.5 3.1-2.5 4.9-3.2 1.7-0.7 3.7-1.1 6.7-1.3 2.9-0.1 3.9-0.2 11.3-0.2s8.4 0 11.3 0.2c2.9 0.1 4.9 0.6 6.7 1.3 1.8 0.7 3.3 1.6 4.9 3.2 1.5 1.5 2.5 3.1 3.2 4.9 0.7 1.7 1.1 3.7 1.3 6.7 0.1 2.9 0.2 3.9 0.2 11.3S77.5 58.4 77.3 61.3z"/>
</svg>
